<svg width="31" height="32" viewBox="0 0 31 32" fill="none" xmlns="http://www.w3.org/2000/svg">
<g clip-path="url(#clip0)">
<path d="M30.9697 10.112C30.8971 8.46486 30.6307 7.33246 30.2491 6.35122C29.8555 5.30966 29.2499 4.37715 28.4565 3.60195C27.6813 2.81469 26.7427 2.20295 25.7132 1.81547C24.7262 1.4339 23.5998 1.16754 21.9526 1.09491C20.2932 1.01614 19.7663 0.997925 15.5575 0.997925C11.3487 0.997925 10.8219 1.01614 9.16858 1.08876C7.52143 1.16139 6.38904 1.42799 5.40803 1.80932C4.36623 2.20295 3.43373 2.80854 2.65853 3.60195C1.87126 4.37715 1.25976 5.31581 0.872046 6.34531C0.490479 7.33246 0.224116 8.45871 0.151493 10.1059C0.0727193 11.7653 0.0545044 12.2921 0.0545044 16.501C0.0545044 20.7098 0.0727193 21.2366 0.145342 22.8899C0.217965 24.537 0.484565 25.6694 0.866132 26.6507C1.25976 27.6922 1.87126 28.6248 2.65853 29.4C3.43373 30.1872 4.37238 30.799 5.40188 31.1864C6.38904 31.568 7.51528 31.8344 9.16267 31.907C10.8157 31.9799 11.3428 31.9978 15.5516 31.9978C19.7604 31.9978 20.2872 31.9799 21.9405 31.907C23.5877 31.8344 24.7201 31.568 25.7011 31.1864C27.7845 30.381 29.4316 28.7338 30.2371 26.6507C30.6184 25.6635 30.885 24.537 30.9576 22.8899C31.0303 21.2366 31.0485 20.7098 31.0485 16.501C31.0485 12.2921 31.0423 11.7653 30.9697 10.112ZM28.1781 22.7688C28.1114 24.2827 27.8571 25.1003 27.6451 25.6453C27.1242 26.9958 26.0524 28.0677 24.7019 28.5886C24.1569 28.8005 23.3334 29.0548 21.8253 29.1213C20.1903 29.1942 19.6999 29.2121 15.5637 29.2121C11.4275 29.2121 10.9309 29.1942 9.30176 29.1213C7.7878 29.0548 6.97026 28.8005 6.42523 28.5886C5.75317 28.3402 5.14143 27.9465 4.6449 27.4318C4.13015 26.9291 3.73652 26.3235 3.48813 25.6515C3.27618 25.1064 3.02188 24.2827 2.95541 22.7749C2.88255 21.1398 2.86457 20.6492 2.86457 16.513C2.86457 12.3768 2.88255 11.8803 2.95541 10.2513C3.02188 8.73737 3.27618 7.91983 3.48813 7.3748C3.73652 6.70251 4.13015 6.09101 4.65105 5.59424C5.1535 5.07949 5.75908 4.68586 6.43138 4.43771C6.97641 4.22575 7.8001 3.97145 9.30792 3.90474C10.943 3.83212 11.4336 3.8139 15.5696 3.8139C19.7119 3.8139 20.2023 3.83212 21.8315 3.90474C23.3455 3.97145 24.163 4.22575 24.708 4.43771C25.3801 4.68586 25.9918 5.07949 26.4884 5.59424C27.0031 6.09692 27.3967 6.70251 27.6451 7.3748C27.8571 7.91983 28.1114 8.74329 28.1781 10.2513C28.2507 11.8864 28.2689 12.3768 28.2689 16.513C28.2689 20.6492 28.2507 21.1337 28.1781 22.7688Z" fill="url(#paint0_linear)"/>
<path d="M15.5575 8.53748C11.1611 8.53748 7.59406 12.1043 7.59406 16.5009C7.59406 20.8976 11.1611 24.4644 15.5575 24.4644C19.9542 24.4644 23.521 20.8976 23.521 16.5009C23.521 12.1043 19.9542 8.53748 15.5575 8.53748ZM15.5575 21.6666C12.7054 21.6666 10.3918 19.3534 10.3918 16.5009C10.3918 13.6485 12.7054 11.3352 15.5575 11.3352C18.4099 11.3352 20.7232 13.6485 20.7232 16.5009C20.7232 19.3534 18.4099 21.6666 15.5575 21.6666Z" fill="url(#paint1_linear)"/>
<path d="M25.6952 8.22263C25.6952 9.24929 24.8628 10.0817 23.8359 10.0817C22.8092 10.0817 21.9767 9.24929 21.9767 8.22263C21.9767 7.19574 22.8092 6.36353 23.8359 6.36353C24.8628 6.36353 25.6952 7.19574 25.6952 8.22263Z" fill="url(#paint2_linear)"/>
</g>
<defs>
<linearGradient id="paint0_linear" x1="15.5515" y1="0.997925" x2="15.5515" y2="31.9978" gradientUnits="userSpaceOnUse">
<stop stop-color="#746057"/>
<stop offset="1" stop-color="#A79085"/>
</linearGradient>
<linearGradient id="paint1_linear" x1="15.5575" y1="8.53748" x2="15.5575" y2="24.4644" gradientUnits="userSpaceOnUse">
<stop stop-color="#746057"/>
<stop offset="1" stop-color="#A79085"/>
</linearGradient>
<linearGradient id="paint2_linear" x1="23.836" y1="6.36353" x2="23.836" y2="10.0817" gradientUnits="userSpaceOnUse">
<stop stop-color="#746057"/>
<stop offset="1" stop-color="#A79085"/>
</linearGradient>
<clipPath id="clip0">
<rect width="31" height="31" fill="white" transform="translate(6.10352e-05 0.997925)"/>
</clipPath>
</defs>
</svg>
