<svg width="36" height="36" viewBox="0 0 36 36" fill="none" xmlns="http://www.w3.org/2000/svg">
<path d="M28.6801 4.42726C22.7774 -1.47544 13.2233 -1.47607 7.31992 4.42726C1.41736 10.3298 1.41644 19.8841 7.31992 25.7874L17.2018 35.6693C17.6427 36.1102 18.3575 36.1101 18.7983 35.6693L28.6802 25.7874C34.5827 19.8849 34.5836 10.3307 28.6801 4.42726ZM27.0836 24.191L18 33.2746L8.91643 24.191C3.90776 19.1823 3.90776 11.0325 8.91643 6.02384C13.9252 1.01524 22.0747 1.0151 27.0836 6.02384C32.0923 11.0324 32.0923 19.1823 27.0836 24.191Z" fill="#F2EEEC"/>
<path d="M18 8.35547C14.2684 8.35547 11.248 11.3752 11.248 15.1074C11.248 18.839 14.2679 21.8593 18 21.8593C21.7317 21.8593 24.752 18.8395 24.752 15.1074C24.752 11.3758 21.7322 8.35547 18 8.35547ZM21.1778 18.2852C21.1346 18.2852 20.0705 19.6015 18 19.6015C15.5162 19.6015 13.5058 17.5915 13.5058 15.1074C13.5058 12.6236 15.5159 10.6133 18 10.6133C22.0348 10.6133 23.9742 15.489 21.1778 18.2852Z" fill="#F2EEEC"/>
</svg>
